<?xml version="1.0" encoding="utf-8"?>
<!-- Generator: Adobe Illustrator 27.3.1, SVG Export Plug-In . SVG Version: 6.00 Build 0)  -->
<svg version="1.1" id="Layer_1" xmlns="http://www.w3.org/2000/svg" xmlns:xlink="http://www.w3.org/1999/xlink" x="0px" y="0px"
	 viewBox="0 0 32 32" style="enable-background:new 0 0 32 32;" xml:space="preserve">
<style type="text/css">
	.st0{fill:#AB47BC;}
	.st1{fill:#F59652;}
</style>
<g>
	<path class="st0" d="M5,18c0-0.55,0.45-1,1-1h24c0.55,0,1,0.45,1,1c0,0.55-0.45,1-1,1H6C5.45,19,5,18.55,5,18z"/>
	<path class="st0" d="M18,5c0.55,0,1,0.45,1,1v24c0,0.55-0.45,1-1,1s-1-0.45-1-1V6C17,5.45,17.45,5,18,5z"/>
</g>
<g>
	<path class="st1" d="M1,14c0-0.55,0.45-1,1-1h24c0.55,0,1,0.45,1,1s-0.45,1-1,1H2C1.45,15,1,14.55,1,14z"/>
	<path class="st1" d="M14,1c0.55,0,1,0.45,1,1v24c0,0.55-0.45,1-1,1s-1-0.45-1-1V2C13,1.45,13.45,1,14,1z"/>
</g>
</svg>
