<?xml version="1.0" encoding="utf-8"?>
<!-- Generator: Adobe Illustrator 27.3.1, SVG Export Plug-In . SVG Version: 6.00 Build 0)  -->
<svg version="1.1" id="Layer_1" xmlns="http://www.w3.org/2000/svg" xmlns:xlink="http://www.w3.org/1999/xlink" x="0px" y="0px"
	 viewBox="0 0 32 32" style="enable-background:new 0 0 32 32;" xml:space="preserve">
<style type="text/css">
	.st0{fill:#AB47BC;}
	.st1{fill:#F59652;}
</style>
<g>
	<path class="st0" d="M5,18c0-0.55,0.45-1,1-1h24c0.55,0,1,0.45,1,1c0,0.55-0.45,1-1,1H6C5.45,19,5,18.55,5,18z"/>
	<path class="st0" d="M5.3,17.3c0.39-0.39,1.02-0.39,1.41,0l12.02,12c0.39,0.39,0.39,1.02,0,1.41c-0.39,0.39-1.02,0.39-1.41,0
		l-12.02-12C4.91,18.32,4.91,17.69,5.3,17.3z"/>
	<path class="st0" d="M18.73,5.29c0.39,0.39,0.39,1.02,0,1.41l-12.02,12c-0.39,0.39-1.02,0.39-1.41,0c-0.39-0.39-0.39-1.02,0-1.41
		l12.02-12C17.7,4.9,18.34,4.9,18.73,5.29z"/>
</g>
<g>
	<path class="st1" d="M1,14c0-0.55,0.45-1,1-1h24c0.55,0,1,0.45,1,1c0,0.55-0.45,1-1,1H2C1.45,15,1,14.55,1,14z"/>
	<path class="st1" d="M1.3,13.3c0.39-0.39,1.02-0.39,1.41,0l12.02,12c0.39,0.39,0.39,1.02,0,1.41c-0.39,0.39-1.02,0.39-1.41,0
		l-12.02-12C0.91,14.32,0.91,13.69,1.3,13.3z"/>
	<path class="st1" d="M14.73,1.29c0.39,0.39,0.39,1.02,0,1.41l-12.02,12c-0.39,0.39-1.02,0.39-1.41,0c-0.39-0.39-0.39-1.02,0-1.41
		l12.02-12C13.7,0.9,14.34,0.9,14.73,1.29z"/>
</g>
</svg>
