<?xml version="1.0" encoding="utf-8"?>
<!-- Generator: Adobe Illustrator 27.3.1, SVG Export Plug-In . SVG Version: 6.00 Build 0)  -->
<svg version="1.1" id="Layer_1" xmlns="http://www.w3.org/2000/svg" xmlns:xlink="http://www.w3.org/1999/xlink" x="0px" y="0px"
	 viewBox="0 0 32 32" style="enable-background:new 0 0 32 32;" xml:space="preserve">
<style type="text/css">
	.st0{fill:#AB47BC;}
	.st1{fill:#F59652;}
</style>
<g>
	<path class="st0" d="M6.3,29.7c-0.4-0.4-0.4-1.06,0-1.46L28.24,6.3c0.4-0.4,1.06-0.4,1.46,0c0.4,0.4,0.4,1.06,0,1.46L7.76,29.7
		C7.36,30.1,6.71,30.1,6.3,29.7z"/>
	<path class="st0" d="M6.3,6.3c0.4-0.4,1.06-0.4,1.46,0L29.7,28.24c0.4,0.4,0.4,1.06,0,1.46c-0.4,0.4-1.06,0.4-1.46,0L6.3,7.76
		C5.9,7.36,5.9,6.71,6.3,6.3z"/>
</g>
<g>
	<path class="st1" d="M2.3,25.7c-0.4-0.4-0.4-1.06,0-1.46L24.24,2.3c0.4-0.4,1.06-0.4,1.46,0c0.4,0.4,0.4,1.06,0,1.46L3.76,25.7
		C3.36,26.1,2.71,26.1,2.3,25.7z"/>
	<path class="st1" d="M2.3,2.3c0.4-0.4,1.06-0.4,1.46,0L25.7,24.24c0.4,0.4,0.4,1.06,0,1.46c-0.4,0.4-1.06,0.4-1.46,0L2.3,3.76
		C1.9,3.36,1.9,2.71,2.3,2.3z"/>
</g>
</svg>
