<?xml version="1.0" encoding="utf-8"?>
<!-- Generator: Adobe Illustrator 27.3.1, SVG Export Plug-In . SVG Version: 6.00 Build 0)  -->
<svg version="1.1" id="Layer_1" xmlns="http://www.w3.org/2000/svg" xmlns:xlink="http://www.w3.org/1999/xlink" x="0px" y="0px"
	 viewBox="0 0 1080 1080" style="enable-background:new 0 0 1080 1080;" xml:space="preserve">
<style type="text/css">
	.st0{fill:#231F20;}
</style>
<g>
	<path class="st0" d="M293.55,453.97c-6.7-9.33-14.32-17.97-22.94-25.37c-8.61-7.39-18.28-13.51-28.76-17.46
		c-10.46-3.97-21.71-5.63-32.78-4.71c-11.09,0.88-21.87,4.29-31.84,9.19c-10.03,4.76-19.44,11.08-25.99,19.48
		c-6.67,8.33-9.2,19.11-7.27,29.5c1.82,10.43,6.93,20.28,13.09,29.24c6.22,8.98,13.56,17.23,21.35,24.99
		c15.68,15.47,33.16,29.03,51.23,41.5c18.11,12.43,36.91,23.74,56.21,33.87c9.66,5.04,19.45,9.82,29.42,14.03
		c9.94,4.18,20.21,7.56,30.65,10.21c20.89,5.24,42.51,7.69,63.86,6.5c6.53-0.83,11.98-2.08,17.9-3.41
		c5.9-1.44,12.29-3.02,20.43-5.78c12.43-3.68,24.14-10.82,31.64-21.33c3.43-4.95,5.73-10.62,6.94-16.5
		c1.27-5.87,1.56-11.98,0.9-18.01c-0.4-6.08-2.17-11.86-4.21-17.57c-1.32-2.75-2.45-5.57-3.9-8.26c-1.58-2.62-2.92-5.37-4.68-7.88
		c-2.17-3.45-13.63-17.5-28.6-29.04c-14.64-11.9-31.68-21.84-38.09-25.84c-4.82-2.89-7.18-4.53-7.76-5.17
		c-0.56-0.67,0.76-0.52,3.2,0.4c2.42,0.95,5.99,2.6,10.04,4.71c3.91,2.29,8.4,4.9,12.4,7.98c5.93,4.08,15.92,11.61,24.29,19.08
		c4.04,3.86,7.97,7.42,10.72,10.51c1.42,1.5,2.65,2.8,3.61,3.81c0.9,1.06,1.55,1.83,1.89,2.22c-8.94-11-19.36-20.81-30.5-29.68
		c-11.15-8.86-23.06-16.78-35.45-23.86c-24.75-14.23-51.62-24.76-79.41-31.54c-12.88-2.76-25.35-4.56-35.56-5.27
		c-19.78-1.56-39.63-0.18-57.23,3.28c-17.64,3.41-32.93,8.92-44.85,13.85c-0.3,0.04-2.39,1.27-5.48,2.97
		c-3.08,1.72-7.16,3.9-11.02,6.57c-1.97,1.28-3.95,2.57-5.83,3.79c-1.86,1.26-3.55,2.56-5.08,3.65c-3.04,2.23-5.35,3.83-5.95,4.32
		c-8.41,6.74-16.58,14.57-23.66,23.57c-7.08,8.98-12.87,19.29-16.31,30.29c-3.46,11-4.41,22.61-3.17,33.7
		c1.21,11.12,4.48,21.71,8.59,31.44c5.76,12.41,16.02,28.7,26.06,41.01c2.54,3.05,4.94,5.93,7.12,8.54c2.27,2.54,4.3,4.81,6,6.71
		c1.67,1.93,3.16,3.35,4.12,4.4c0.98,1.03,1.52,1.59,1.52,1.59c-10.44-9.89-20.36-20.36-29.09-31.66
		c-8.71-11.29-16.26-23.44-21.48-36.47c3.47,10,8.37,19.5,14.08,28.45c5.69,8.97,12.05,17.56,19.07,25.6
		c13.84,16.28,29.79,30.77,46.4,44.46c16.71,13.62,34.33,26.19,52.63,38.05c18.54,11.57,38.55,20.85,59.13,28.79
		c33.16,12.7,67.47,21.69,102.02,28.32c34.57,6.57,69.47,10.75,104.4,12.42c34.91,1.57,69.96,0.95,104.51-4.31
		c17.24-2.71,34.42-6.53,50.79-13.23c8.16-3.35,16.09-7.57,23.16-13.25c3.48-2.9,6.74-6.16,9.47-9.93c2.65-3.78,4.72-8.22,5.8-12.64
		c2.38-8.58,3.05-17.94,0.92-26.88c-2.06-8.96-6.85-17.12-12.93-23.75c-12.35-13.31-28.55-21.45-44.77-27.66
		c-16.34-6.23-33.28-10.34-50.29-13.59c-17.03-3.15-34.2-5.35-51.41-6.76c-17.21-1.45-34.46-2.15-51.72-2.25
		c-8.63-0.01-17.27,0.04-25.95,0.48c-8.68,0.46-17.39,1.13-26.21,2.88c-4.41,0.99-8.87,2.1-13.36,4.51
		c-1.12,0.68-2.24,1.22-3.32,2.24c-0.54,0.46-1.07,0.92-1.59,1.41c-0.48,0.61-0.95,1.23-1.39,1.87c-0.49,0.6-0.83,1.33-1.1,2.12
		c-0.26,0.77-0.63,1.54-0.71,2.33c-0.17,1.59-0.29,3.24,0.08,4.61c1.22,5.75,4.35,9.44,7.26,12.96c2.99,3.5,6.29,6.42,9.59,9.36
		c6.66,5.74,13.67,10.84,20.75,15.79c7.09,4.93,14.28,9.68,21.55,14.28c7.25,4.63,14.59,9.12,21.93,13.58
		c7.34,4.39,14.73,8.94,22.48,13.01c15.4,8.16,31.52,15.05,48.24,20.33c16.71,5.26,34.01,9.1,51.88,10.03
		c8.93,0.38,18.05,0.12,27.23-2.29c4.56-1.26,9.19-3.1,13.38-6.28c2.07-1.64,3.96-3.64,5.46-5.99c1.46-2.39,2.39-5.08,2.84-7.79
		c0.72-5.44-0.41-10.58-2.2-15c-1.8-4.46-4.14-8.49-6.76-12.21c-5.25-7.44-11.33-13.99-17.73-20.09
		c-12.84-12.16-26.83-22.79-41.2-32.8c-28.8-19.87-59.09-37.87-91.33-52.68c-16.13-7.36-32.75-13.89-50.06-18.85
		c-8.65-2.48-17.49-4.52-26.57-5.84c-9.09-1.24-18.43-1.97-28.28-0.24c-4.87,1.02-10.2,2.58-14.8,6.96
		c-2.25,2.19-3.99,5.29-4.62,8.46c-0.66,3.18-0.35,6.23,0.29,8.93c1.37,5.42,3.99,9.73,6.79,13.64c2.83,3.91,5.97,7.41,9.24,10.71
		c6.58,6.54,13.68,12.32,21.01,17.69c7.39,5.35,14.76,10.44,22.75,15.05c31.51,18.88,69.43,28.78,106.99,25.31
		c9.39-0.67,18.68-2.43,27.85-4.64c9.13-2.41,18.12-5.48,26.78-9.4c17.25-7.9,33.36-19.02,45.92-34.01
		c6.68-8.18,12.19-17.55,15.4-27.91c3.23-10.32,3.92-21.66,1.54-32.36c-2.25-10.74-7.71-20.54-13.93-28.89
		c-6.28-8.2-13.25-15.58-20.51-22.53c-14.56-13.89-30.28-26.15-46.52-37.54c-16.27-11.35-33.12-21.76-50.51-31.21
		c-17.4-9.42-35.33-17.91-54.09-24.79c-9.41-3.38-18.99-6.43-28.98-8.58c-9.97-2.16-20.36-3.6-31.47-2.67
		c-5.54,0.53-11.37,1.76-17.01,4.62c-5.6,2.79-10.9,7.53-13.93,13.28c-3.1,5.71-4.28,11.78-4.59,17.41
		c-0.33,5.69,0.29,11.03,1.2,16.19c0.87,5.19,2.21,10.01,3.98,15.28c0.99,2.49,2,4.99,3.15,7.38c1.26,2.31,2.34,4.78,3.77,6.96
		c5.38,9,11.93,16.92,18.91,24.15c14.05,14.43,29.79,26.33,45.89,37.27c16.11,10.94,32.71,20.82,49.43,30.27
		c33.45,18.87,67.47,35.95,100.86,53.47c16.69,8.76,33.25,17.58,49.36,26.87c16.1,9.26,31.83,18.98,46.19,29.75
		c7.15,5.39,13.93,11.08,19.77,17.15c5.77,6.04,10.83,12.56,13.2,18.91c0.74,1.58,0.99,3.12,1.46,4.65c0.14,1.5,0.52,2.99,0.38,4.43
		c0.13,1.46-0.27,2.86-0.42,4.3c-0.47,1.42-0.73,2.86-1.49,4.29c-2.41,5.78-7.65,11.62-13.96,16.75
		c-12.71,10.72-27.62,17.75-43.7,20.71c-16.09,3.01-33.22,2.22-50.3-0.96c-17.11-3.13-34.19-8.25-51.16-14.12
		c-16.99-5.87-33.9-12.56-50.96-19.23c-34.13-13.26-68.85-27.1-106.59-34.6c-18.83-3.66-38.53-5.57-58.51-3.79
		c-4.99,0.53-9.98,0.88-14.93,2.04l-7.43,1.49c-2.49,0.43-4.88,1.38-7.32,2.05l-7.27,2.24c-2.43,0.73-4.7,1.89-7.06,2.83L319,736.9
		c-2.33,0.99-4.56,2.32-6.84,3.48c-9,4.94-17.85,11.22-25.39,19.8c-1.93,2.05-3.61,4.48-5.32,6.82c-1.55,2.52-3.2,4.97-4.41,7.76
		c-2.67,5.38-4.47,11.39-5.18,17.48c-1.63,12.28,1.28,24.38,6.09,34.41c4.86,10.11,11.54,18.57,18.86,25.86
		c14.8,14.46,32.18,24.62,50.29,32.04c18.15,7.38,37.19,11.89,56.38,14.05c38.43,4.28,77.5-1.27,113.17-14.64
		c17.87-6.64,34.9-15.2,50.95-25.14c15.99-10.03,30.99-21.43,44.92-33.87c3.51-3.08,6.83-6.35,10.26-9.52l9.87-9.88
		c6.18-6.89,12.54-13.61,18.56-20.68l8.72-10.92l4.36-5.47c1.4-1.87,2.69-3.84,4.04-5.75l8-11.57c2.64-3.88,4.87-8.08,7.31-12.11
		c5.05-7.97,8.87-16.75,13.09-25.27c1.89-4.38,3.51-8.91,5.26-13.36c0.82-2.25,1.79-4.44,2.49-6.75l2.01-6.95
		c2.98-9.18,4.58-18.77,6.3-28.31l1.41-14.52c0.32-2.42,0.22-4.86,0.26-7.29l0.04-7.31c-0.31-19.48-3.63-38.84-9.37-57.27
		c-5.67-18.49-13.97-35.89-23.54-52.27c-9.6-16.39-20.58-31.78-32.39-46.35c-11.88-14.51-24.6-28.19-37.77-41.32
		c-26.34-26.28-54.78-50.04-83.26-73.15l-10.67-8.64l-5.34-4.31l-5.66-4.48c-7.59-5.88-15.32-11.48-23.16-16.85
		c-15.68-10.73-31.77-20.68-48.18-30.09c-32.83-18.79-66.88-35.52-102.18-50.34c-35.36-14.72-71.86-27.69-110.9-36.48
		c-15.05-3.24-31.31-6.17-49.42-7.31c-9.06-0.55-18.58-0.66-28.76,0.24c-10.15,0.9-21.13,2.92-32.71,7.47
		c-5.8,2.42-11.71,5.48-17.43,9.65c-5.68,4.24-11.03,9.54-15.4,15.68c-4.45,6.13-7.53,13.03-9.68,19.84
		c-0.49,1.69-1.03,3.44-1.42,5.12l-1,4.96c-0.36,1.64-0.48,3.39-0.71,5.09c-0.22,1.71-0.38,3.43-0.41,5.19
		c-0.79,14.01,2.68,28.55,8.6,40.64c5.92,12.2,13.86,22.37,22.31,31.04c8.48,8.74,17.59,16.09,26.95,22.73
		c9.36,6.63,19,12.53,28.8,17.95c19.62,10.78,39.9,19.79,60.54,27.81c41.29,15.97,84,28.25,126.9,38.53
		c42.91,10.24,86.02,18.37,128.35,24.87c21.16,3.26,42.13,6.07,62.79,8.51c10.71,1.09,19.57,2.64,28.99,3.98
		c4.65,0.68,9.27,1.35,13.86,2.02c2.3,0.33,4.59,0.66,6.87,0.99c2.28,0.38,4.56,0.93,6.82,1.38c72.69,14.01,137.31,36.3,187.68,55.6
		c34.06,12.34,63.89,23.49,89.68,33.59c6.48,2.46,12.72,4.84,18.71,7.12c5.98,2.32,11.72,4.55,17.23,6.69
		c11.1,4.11,21.17,8.05,30.47,11.39c37.11,13.53,60.56,19.97,73.11,19.43c12.45-0.48,14.41-7.9,6.45-20.62
		c-7.93-12.61-25.61-30.12-51.62-49.46c-39.29-25.63-83.29-50.76-133.5-73.98c-50.23-23.1-106.7-44.53-171.34-59.84
		c-4.03-0.98-8.08-1.96-12.15-2.94c-4.07-0.98-8.29-1.62-12.47-2.44c-8.39-1.52-16.86-3.06-25.41-4.62
		c-4.31-0.68-8.53-1.7-12.97-2.1c-4.4-0.51-8.83-1.02-13.28-1.53c-8.89-0.98-17.88-1.96-26.96-2.96c-2.34-0.27-4.4-0.41-6.5-0.57
		c-2.11-0.15-4.22-0.31-6.34-0.47c-4.24-0.33-8.49-0.66-12.77-0.99c-8.55-0.72-17.2-1.45-25.93-2.18
		c-17.46-1.53-35.25-3.28-53.39-5.24c-36.27-3.95-73.92-8.77-112.78-15.29c-38.8-6.58-78.98-14.64-119.13-26.89
		c10.46,5.05,4.82,4.37-12.55-1.78c-8.63-3.15-20.11-7.82-33.26-14.6c-13.03-6.79-28.01-15.86-40.63-28.4
		c-6.13-6.28-11.6-13.43-14.53-21.12c-1.49-3.84-2.4-7.77-2.62-11.82c-0.13-2.02-0.07-4.08,0.19-6.18c0.05-1.04,0.3-2.1,0.49-3.17
		c0.15-1.11,0.46-2.05,0.73-3.02c1.12-3.86,2.85-7.09,5.29-9.87c2.49-2.75,5.85-5.12,10.09-7.05c8.49-3.91,20.16-5.62,32.44-5.68
		c24.84-0.02,52.23,5.69,79.32,13.74c27.19,8.12,54.46,18.92,81.02,31.29c38.3,18.12,77.86,39.3,116.19,64.23
		c9.56,6.24,18.98,12.75,28.13,19.53c4.58,3.38,9.07,6.85,13.45,10.38c4.63,3.8,9.28,7.62,13.95,11.46
		c18.95,15.63,37.87,31.34,56.13,47.8c18.22,16.47,35.84,33.68,51.98,51.94c16.06,18.28,30.43,37.75,41.82,58.23
		c5.41,10.3,10.52,20.75,14.01,31.49c0.84,2.69,2.05,5.32,2.63,8.05l2.13,8.11c0.86,2.69,1.07,5.44,1.63,8.16
		c0.4,2.73,1.17,5.45,1.32,8.19c0.41,5.48,1.23,10.97,0.97,16.47c-0.06,2.75,0.16,5.51-0.08,8.26l-0.76,8.26
		c-0.15,1.38-0.15,2.76-0.41,4.14l-0.78,4.12l-1.49,8.26l-2.29,8.2c-0.83,2.73-1.32,5.51-2.5,8.19
		c-7.57,21.75-19.87,42.93-35.15,62.86l-5.84,7.44l-2.93,3.72l-3.21,3.58c-4.3,4.75-8.49,9.65-12.86,14.31
		c-8.75,9.27-18.11,17.84-27.84,25.84c-19.49,15.95-40.93,29.15-63.75,38.41c-22.78,9.34-46.99,14.54-71.13,15.23
		c-24.08,0.62-48.27-3.4-69.45-12.2c-10.57-4.34-20.26-10.01-28.2-16.41c-7.86-6.35-13.76-13.88-15.76-19.57
		c-1.04-2.83-1.3-4.97-1.16-6.61c0.24-1.63,0.68-3.11,1.99-5.19c2.46-4.17,9.67-9.84,18.8-14.14c9.32-4.31,19.17-7.07,29.52-8.59
		c10.39-1.4,21.45-1.06,32.69,0.07c11.28,1.23,23.06,3.83,35.04,6.85c12.03,3.25,24.32,7.18,36.86,11.58
		c25.16,8.88,51.18,19.59,79.37,29.92c14.15,5.1,28.69,10.24,44.37,14.54c15.63,4.3,32.19,8.01,50.16,9.77
		c17.88,1.76,37.57,1.33,57.47-3.78c19.87-4.96,39.23-15.03,54.84-28.15l3.91-3.11l3.94-3.68c2.61-2.34,5.22-5.31,7.75-8.2
		c5.01-6.17,10.01-13.14,13.48-22.36c3.51-8.98,5.23-19.66,4.3-29.79c-0.87-10.21-4.15-19.06-7.88-26.53
		c-3.78-7.6-8.21-13.56-12.66-19.03c-2.24-2.67-4.51-5.28-6.8-7.58c-2.29-2.46-4.59-4.59-6.9-6.78
		c-9.24-8.58-18.57-15.63-27.88-22.15c-18.64-12.95-37.28-23.68-55.84-33.97c-18.56-10.21-37.04-19.78-55.33-29.2
		c-36.52-18.83-72.57-37.04-105.83-57.05c-16.57-9.99-32.43-20.5-46.16-31.68c-6.84-5.58-13.11-11.33-18.3-17.08
		c-5.19-5.73-9.21-11.46-11.62-16.4c-0.39-1.19-1.13-2.41-1.39-3.49c-0.16-0.55-0.34-1.08-0.55-1.62c-0.2-0.58-0.4-1.6-0.61-2.37
		c-0.49-1.73-0.65-3.14-0.99-4.65c-0.13-1.3-0.37-2.67-0.36-3.59c-0.13-1.98,0.26-2.8-0.14-1.56c-0.28,1.1-2.45,4.29-4.31,5.4
		c-0.98,0.58-1.39,0.83-1.64,0.84c0.09,0.05,0.03,0,0.19-0.03c0.28,0,0.36-0.11,0.78-0.14c1.4-0.22,4.07-0.32,7.19-0.09
		c6.4,0.51,14.38,2.16,22.5,4.54c16.39,4.8,33.6,12.14,50.29,20.49c16.73,8.41,33.19,17.94,48.92,28.32
		c15.72,10.36,30.84,21.61,44.27,33.52c6.64,5.95,12.93,12.08,18.06,18.09c1.31,1.5,2.49,2.98,3.61,4.42
		c0.5,0.69,1.18,1.5,1.54,2.08l1.01,1.65l1.09,1.6c0.32,0.53,0.46,1.06,0.73,1.57c0.49,1.03,1.13,2.03,1.29,3.02
		c1.36,3.92,1.61,7.43,0.8,11.65c-0.82,4.18-2.97,9.06-6.53,13.99c-3.54,4.93-8.4,9.84-14.1,14.25c-5.81,4.35-12.4,8.19-19.44,11.43
		c-14.14,6.45-30.13,10.13-46.23,10.86c-8.07,0.44-16.17-0.16-24.23-1.09c-8-1.34-16.03-2.84-23.77-5.59
		c-7.84-2.39-15.33-5.92-22.77-9.6l-5.42-3.14c-1.84-1.09-3.56-1.95-5.57-3.29c-3.93-2.47-7.73-5-11.41-7.57
		c-7.31-5.12-14.14-10.54-19.38-15.65c-2.56-2.5-4.69-5.02-5.67-6.51c-0.61-0.8-0.63-1.13-0.56-0.8c0.07,0.34,0.85,1.87,0.85,5.44
		c-0.02,1.75-0.28,4.12-1.12,6.53c-0.39,1.2-0.9,2.48-1.57,3.59c-0.53,1.13-1.34,2.24-2.05,3.15c-3.02,3.78-5.7,5.03-6.78,5.53
		c-1.22,0.47-1.01,0.35-0.55,0.26c0.47-0.13,1.69-0.22,2.93-0.3c2.65-0.13,6.25,0.06,10.02,0.49c3.8,0.43,7.89,1.15,12.07,2.05
		c16.82,3.65,34.72,10.05,52.16,17.7c17.51,7.69,34.82,16.72,51.78,26.64c16.92,9.93,33.81,20.84,49.27,32.18
		c7.73,5.69,15.12,11.58,21.8,17.56c6.56,5.92,12.58,12.22,16.15,17.36c1.78,2.47,2.73,4.69,2.73,4.69
		c-0.06-0.14-0.29-0.88-0.22-2.72c0.02-1.85,0.69-4.89,2.11-7.3c1.38-2.46,3.09-3.99,4-4.62c1.01-0.67,1.14-0.64,0.78-0.52
		c-0.67,0.33-3.4,0.97-6.55,1.24c-6.48,0.62-15,0.11-23.55-1.22c-8.62-1.3-17.54-3.44-26.39-6.08c-17.74-5.36-35.24-13-51.61-22.33
		l-3.06-1.77l-3.35-1.99l-6.73-4.01l-13.31-8.12c-8.79-5.45-17.5-10.97-25.73-16.6c-8.19-5.58-16.19-11.45-22.07-16.74l-1.11-0.98
		l-0.89-0.89c-0.56-0.57-1.33-1.24-1.63-1.65c-0.9-0.94-1.51-1.81-1.2-1.37c0.1,0.14,0.17,0.31,0.22,0.48
		c0.2,0.36,0.59,1.07,0.76,1.64c0.1,0.31,0.18,0.61,0.25,0.93c0.22,0.6,0.4,1.22,0.53,1.85c0.14,0.63,0.23,1.27,0.27,1.91l0.04,0.98
		c0.05,0.47,0.09,0.95,0.1,1.43c0.08,1.97-0.26,3.8-0.71,5.79c-0.41,2.06-1.27,4.15-2.31,5.89c-0.73,1.52-1.73,2.97-2.9,4.21
		c-0.72,0.71-0.8,0.91-1.23,1.33c-0.36,0.37-0.74,0.71-1.14,1.03c-0.36,0.3-0.91,0.65-1.17,0.83c-0.16,0.15-0.33,0.28-0.52,0.4
		c-0.33,0.24-0.81,0.46-1.11,0.58c-0.02,0.05-0.05,0.09-0.09,0.1c0,0-0.22,0.01,0.1-0.05c0.48-0.09,0.65-0.24,1.34-0.39l2.13-0.5
		c3.43-0.65,7.73-1.21,12.31-1.6c9.21-0.79,19.47-0.99,29.78-1c20.71,0.06,41.56,1,62.1,3.15c21.75,2.23,42.89,5.58,62.24,10.7
		c9.63,2.58,18.8,5.62,26.94,9.17c8.13,3.52,15.12,7.71,19.87,11.8c2.52,2.02,4.07,4,5.41,5.73c0.46,0.88,1.19,1.68,1.41,2.47
		c0.52,0.75,0.6,1.57,0.94,2.33c0.24,0.36,0.11,0.85,0.24,1.25c0.02,0.45,0.33,0.79,0.23,1.32c-0.07,1.01,0.25,1.9-0.02,3.14
		c-0.06,0.58-0.09,1.17-0.09,1.77l-0.46,2.03l-0.19,1.03c-0.06,0.36-0.12,0.77-0.13,0.65c-0.09,0.03,0.12,0.09-0.02,0.19
		c-0.07,0.35-0.65,1.49-2.22,3.06c-1.56,1.56-3.9,3.44-6.94,5.21c-6,3.6-13.87,6.9-22.31,9.52c-16.96,5.34-35.98,8.55-54.99,10.6
		c-19.09,2.04-38.46,2.83-57.74,2.8c-38.59-0.1-76.91-3.47-114.15-9.71c-27.14-4.81-54.4-11.48-80.49-20.29
		c-26.04-8.79-51.05-19.78-72.35-33.31c-44.47-29.23-84.53-63.38-106.67-96.25c-3.21-5.04-7.49-10.82-11.28-17.65
		c-3.89-6.81-7.69-14.64-9.82-23.48c-2.09-8.82-2.68-18.69,0.2-29.33c2.98-10.58,9.31-21.91,19.13-32.48
		c8.12-9.21,22.19-18.89,36.91-26.41c14.19-7.32,29.41-11.61,41.33-15.01c13.1-3.22,26.54-4.62,40.06-4.84
		c13.53-0.2,27.17,0.86,40.9,3.06c27.43,4.52,55.26,13.56,82.83,27.88c6,2.92,10,5.59,12.95,7.74c2.99,2.11,4.74,3.99,6.19,5.56
		c1.44,1.58,2.52,2.94,3.94,4.33c1.38,1.43,3.04,2.94,5.74,4.75c8.32,6.08,16.11,12.31,22.91,18.87
		c6.82,6.51,13.08,13.15,17.85,19.94c4.84,6.74,8.52,13.55,10.43,19.76c0.94,2.87,1.59,6.56,1.85,9.87
		c0.05,1.63,0.33,3.34,0.14,4.86c-0.06,1.56-0.06,3.15-0.38,4.58c-0.87,5.9-3.07,11.06-6.68,15.65c-3.67,4.53-8.69,8.42-14.39,11.48
		c-11.46,6.21-25.17,8.96-38.15,9.78c-19.9,1.17-39.43-1.21-57.57-5.61c-9.09-2.21-17.85-5.01-26.2-8.32
		c-8.21-3.26-16.63-7.26-24.81-11.48c-20.86-10.55-41.12-22.53-61.81-36.17c-1.61-1.05-7.97-5.06-17.5-11.79
		c-9.47-6.76-22.23-16.22-35.49-28.65c-6.58-6.22-13.29-13.2-19.16-20.93c-5.85-7.67-10.91-16.29-12.99-24.57
		c-1.94-8.32-1.01-15.34,4.25-22.37c5.12-7.06,14.62-13.42,24.79-18.22c10.06-4.74,20.71-7.43,31.22-7.3
		c10.5,0.05,20.85,2.76,30.32,7.46c9.49,4.66,17.99,11.3,25.39,18.55c7.42,7.25,13.69,15.24,19.01,23.11
		c10.65,15.8,17.56,31.15,21.91,43.07c4.4,11.95,6.4,20.53,7.24,23.9c-0.2-2.81-2.65-16.64-9.82-34.97
		c-7.2-18.16-19.45-40.96-37.2-58.57c-8.82-8.76-18.91-16.07-29.33-20.75c-10.39-4.81-21.09-6.46-30.41-6.26
		c-9.38,0.07-17.35,2.49-23.29,4.44c-2.93,1.19-5.45,2.07-7.37,2.95c-1.89,0.97-3.27,1.67-4.06,2.08
		c-3.18,1.56-7.35,3.79-11.35,6.37c-3.99,2.59-7.75,5.56-10.52,8.28c-2.81,2.69-4.66,5.1-5.63,6.14c-0.89,1.07-1.25,0.64,0.02-2.03
		c0.61-1.34,2.47-4.3,6.1-7.98c3.63-3.66,9.16-7.93,16.41-11.83c7.32-3.78,15.94-7.5,25.52-9.53c9.56-2,19.98-2.07,30.02,0.14
		c10.06,2.16,19.59,6.71,27.87,12.3c8.31,5.59,15.32,12.3,21.09,18.7c2.98,3.12,5.4,6.43,7.8,9.32c2.19,3.07,4.28,5.8,5.95,8.36
		c1.65,2.57,3.15,4.78,4.31,6.66c1.13,1.9,2.03,3.41,2.66,4.46c5.01,8.5,6.33,10.74,7.69,13.04c1.37,2.31,2.86,4.66,6.64,14.13
		c1.79,4.77,3.13,8.65,4.05,12c1.02,3.32,1.64,6.1,2.2,8.62c0.6,2.52,1.04,4.8,1.45,7.21c0.44,2.4,0.99,4.89,1.47,7.88
		c0.25,1.49,0.61,3.51,0.89,5.87c0.22,2.37,0.5,5.07,0.7,7.91c0.28,5.68,0.36,11.9-0.01,17.04c-0.24,5.17-0.92,9.2-0.97,10.88
		c-0.08,1.66,0.24,0.95,1.28-3.73c1-4.67,1.94-14.67,0.83-27.12c-1.04-12.42-3.9-27.16-8.34-40.83
		c-4.38-13.7-10.13-26.31-15.05-35.24C297.39,459.37,293.55,453.97,293.55,453.97z"/>
</g>
</svg>
