<?xml version="1.0" encoding="utf-8"?>
<!-- Generator: Adobe Illustrator 27.3.1, SVG Export Plug-In . SVG Version: 6.00 Build 0)  -->
<svg version="1.1" id="Layer_1" xmlns="http://www.w3.org/2000/svg" xmlns:xlink="http://www.w3.org/1999/xlink" x="0px" y="0px"
	 viewBox="0 0 32 32" style="enable-background:new 0 0 32 32;" xml:space="preserve">
<style type="text/css">
	.st0{fill:#AB47BC;}
	.st1{fill:#F59652;}
</style>
<g>
	<path class="st0" d="M31,18c0,0.55-0.45,1-1,1H6c-0.55,0-1-0.45-1-1c0-0.55,0.45-1,1-1h24C30.55,17,31,17.45,31,18z"/>
	<path class="st0" d="M30.7,18.7c-0.39,0.39-1.02,0.39-1.41,0l-12.02-12c-0.39-0.39-0.39-1.02,0-1.41c0.39-0.39,1.02-0.39,1.41,0
		l12.02,12C31.1,17.68,31.1,18.31,30.7,18.7z"/>
	<path class="st0" d="M17.27,30.71c-0.39-0.39-0.39-1.02,0-1.41l12.02-12c0.39-0.39,1.02-0.39,1.41,0c0.39,0.39,0.39,1.02,0,1.41
		l-12.02,12C18.3,31.1,17.66,31.1,17.27,30.71z"/>
</g>
<g>
	<path class="st1" d="M27,14c0,0.55-0.45,1-1,1H2c-0.55,0-1-0.45-1-1c0-0.55,0.45-1,1-1h24C26.55,13,27,13.45,27,14z"/>
	<path class="st1" d="M26.7,14.7c-0.39,0.39-1.02,0.39-1.41,0l-12.02-12c-0.39-0.39-0.39-1.02,0-1.41c0.39-0.39,1.02-0.39,1.41,0
		l12.02,12C27.1,13.68,27.1,14.31,26.7,14.7z"/>
	<path class="st1" d="M13.27,26.71c-0.39-0.39-0.39-1.02,0-1.41l12.02-12c0.39-0.39,1.02-0.39,1.41,0c0.39,0.39,0.39,1.02,0,1.41
		l-12.02,12C14.3,27.1,13.66,27.1,13.27,26.71z"/>
</g>
</svg>
