<?xml version="1.0" encoding="utf-8"?>
<!-- Generator: Adobe Illustrator 27.3.1, SVG Export Plug-In . SVG Version: 6.00 Build 0)  -->
<svg version="1.1" id="Layer_1" xmlns="http://www.w3.org/2000/svg" xmlns:xlink="http://www.w3.org/1999/xlink" x="0px" y="0px"
	 viewBox="0 0 900 120" style="enable-background:new 0 0 900 120;" xml:space="preserve">
<style type="text/css">
	.st0{fill:#FFFFFF;}
</style>
<path class="st0" d="M6.6,66.7c0-24.7,18.8-42.8,44.2-42.8c12.3,0,23.3,4.1,30.8,12.3l-5.7,5.7c-6.9-7-15.3-10-24.9-10
	c-20.3,0-35.6,14.9-35.6,34.9s15.3,34.9,35.6,34.9c9.6,0,18-3,24.9-10.1l5.7,5.7c-7.5,8.2-18.5,12.4-30.9,12.4
	C25.3,109.5,6.6,91.3,6.6,66.7z M130.6,45v8.3c-0.7,0-1.4-0.1-2-0.1c-13.2,0-21.3,8.4-21.3,23.4v32.2h-8.5V45.5h8.2v12.4
	C110.9,49.5,118.9,45,130.6,45z M200.5,79.8h-52.9c1,13.2,11.1,22,24.9,22c7.7,0,14.6-2.8,19.4-8.3l4.8,5.5
	c-5.7,6.7-14.4,10.3-24.4,10.3c-19.7,0-33.2-13.5-33.2-32.2S152.1,45,170,45s30.7,13.1,30.7,32.1C200.6,77.9,200.5,78.8,200.5,79.8z
	 M147.6,73.4h44.9C191.4,61,182.4,52.4,170,52.4C157.7,52.4,148.7,61,147.6,73.4z M264.1,69.6v39.2h-8.2v-9.9
	c-3.9,6.5-11.3,10.5-21.8,10.5c-14.3,0-23.1-7.5-23.1-18.4c0-9.8,6.3-17.9,24.4-17.9h20.1v-3.8c0-10.8-6.1-16.7-17.9-16.7
	c-8.2,0-15.9,2.9-21.1,7.5l-3.9-6.4c6.4-5.4,15.8-8.5,25.8-8.5C254.8,45,264.1,53.2,264.1,69.6z M255.5,89.8V79.4h-19.9
	c-12.3,0-16.2,4.8-16.2,11.3c0,7.3,5.9,11.9,16,11.9C245.1,102.7,252.2,98.1,255.5,89.8z M320.6,104.9c-3.4,3-8.4,4.4-13.4,4.4
	c-11.9,0-18.5-6.7-18.5-18.4V52.7h-11.3v-7.2h11.3V31.7h8.5v13.8h19.2v7.2h-19.2v37.8c0,7.5,3.9,11.6,11,11.6c3.5,0,7-1.1,9.4-3.2
	L320.6,104.9z M334.2,25.5c0-3.2,2.8-6,6.3-6c3.5,0,6.3,2.6,6.3,5.9c0,3.5-2.6,6.3-6.3,6.3C337,31.7,334.2,28.9,334.2,25.5z
	 M336.2,45.5h8.5v63.3h-8.5V45.5z M421.7,45.5l-28.2,63.3h-8.8l-28-63.3h8.9l23.7,53.9l23.9-53.9H421.7z M487.1,79.8h-53
	c1,13.2,11.1,22,24.9,22c7.7,0,14.6-2.8,19.4-8.3l4.8,5.5c-5.7,6.7-14.4,10.3-24.4,10.3c-19.7,0-33.2-13.5-33.2-32.2
	S438.7,45,456.5,45s30.7,13.1,30.7,32.1C487.2,77.9,487.1,78.8,487.1,79.8z M434.1,73.4H479c-1.1-12.4-10.1-21.1-22.5-21.1
	C444.2,52.4,435.2,61,434.1,73.4z M612.1,71.2v37.6h-27.2V75.9c0-8.2-3-11.3-7.3-11.3c-4.8,0-8.5,3.2-8.5,12v32.1h-27.2V75.9
	c0-8.2-2.8-11.3-7.3-11.3c-4.8,0-8.5,3.2-8.5,12v32.1h-27.2V43h25.9v6.1c4.9-4.9,11.4-7.3,18.7-7.3c8.5,0,16,3.1,20.6,10
	c5.3-6.4,13-10,22-10C600.8,41.8,612.1,50.5,612.1,71.2z M621.1,23.8c0-7.8,6.4-13.8,16.4-13.8s16.4,5.5,16.4,13.4
	c0,8.3-6.4,14.3-16.4,14.3C627.5,37.7,621.1,31.7,621.1,23.8z M623.9,43h27.2v65.8h-27.2V43z M735.8,71.2v37.6h-27.2V75.9
	c0-8.2-3.1-11.3-8.1-11.3c-5.5,0-10.2,3.5-10.2,13.2v30.9h-27.2V43H689v6.5c5.2-5.2,12.2-7.7,19.9-7.7
	C724,41.8,735.8,50.5,735.8,71.2z M821.6,19.5v89.3h-25.9v-5.4c-4,4.4-9.9,6.6-18,6.6c-17.2,0-31.8-13-31.8-34.2s14.6-34,31.8-34
	c7.2,0,12.8,1.8,16.7,5.7V19.5H821.6z M794.9,75.8c0-8.5-4.7-12.9-10.7-12.9s-10.7,4.3-10.7,12.9s4.7,13,10.7,13
	C790.2,88.8,794.9,84.4,794.9,75.8z M829.5,103.5l7.5-17.9c6.3,3.7,15.2,5.9,23,5.9c6.6,0,8.4-1.2,8.4-3.1c0-6.7-37.9,2.3-37.9-24.1
	c0-12.4,11.5-22.5,33.7-22.5c9.6,0,19.9,1.8,26.8,5.4l-7.5,17.9c-6.7-3.7-13.5-4.8-19-4.8c-7,0-8.9,1.6-8.9,3.1
	c0,6.9,37.8-2,37.8,24.3c0,11.9-11.2,22.3-34.1,22.3C848.1,110,836.3,107.3,829.5,103.5z"/>
</svg>
