<?xml version="1.0" encoding="utf-8"?>
<!-- Generator: Adobe Illustrator 27.3.1, SVG Export Plug-In . SVG Version: 6.00 Build 0)  -->
<svg version="1.1" id="Layer_1" xmlns="http://www.w3.org/2000/svg" xmlns:xlink="http://www.w3.org/1999/xlink" x="0px" y="0px"
	 viewBox="0 0 900 120" style="enable-background:new 0 0 900 120;" xml:space="preserve">
<style type="text/css">
	.st0{fill:url(#SVGID_1_);}
</style>
<linearGradient id="SVGID_1_" gradientUnits="userSpaceOnUse" x1="6.5464" y1="60" x2="893.4536" y2="60">
	<stop  offset="0.0934" style="stop-color:#F59652"/>
	<stop  offset="0.906" style="stop-color:#AB47BC"/>
</linearGradient>
<path class="st0" d="M6.55,66.68c0-24.67,18.77-42.84,44.16-42.84c12.27,0,23.34,4.09,30.81,12.28l-5.66,5.66
	c-6.86-6.98-15.28-9.99-24.91-9.99c-20.34,0-35.62,14.92-35.62,34.9c0,19.98,15.28,34.9,35.62,34.9c9.63,0,18.05-3.01,24.91-10.11
	l5.66,5.66c-7.46,8.18-18.53,12.39-30.93,12.39C25.32,109.52,6.55,91.35,6.55,66.68z M130.62,45.02v8.3c-0.72,0-1.44-0.12-2.04-0.12
	c-13.24,0-21.3,8.42-21.3,23.35v32.25h-8.54V45.5h8.18v12.39C110.88,49.47,118.94,45.02,130.62,45.02z M200.53,79.8h-52.95
	c0.96,13.24,11.07,22.02,24.91,22.02c7.7,0,14.56-2.77,19.37-8.3l4.81,5.54c-5.66,6.74-14.44,10.35-24.43,10.35
	c-19.74,0-33.21-13.48-33.21-32.25c0-18.77,13.12-32.13,30.93-32.13c17.81,0,30.69,13.12,30.69,32.13
	C200.65,77.87,200.53,78.83,200.53,79.8z M147.59,73.42h44.89c-1.08-12.39-10.11-21.06-22.5-21.06
	C157.69,52.36,148.67,61.02,147.59,73.42z M264.07,69.57v39.23h-8.18v-9.87c-3.85,6.5-11.31,10.47-21.78,10.47
	c-14.32,0-23.1-7.46-23.1-18.41c0-9.75,6.26-17.93,24.43-17.93h20.1v-3.85c0-10.83-6.14-16.73-17.93-16.73
	c-8.18,0-15.88,2.89-21.06,7.46l-3.85-6.38c6.38-5.41,15.76-8.54,25.75-8.54C254.81,45.02,264.07,53.2,264.07,69.57z M255.53,89.78
	V79.43h-19.86c-12.28,0-16.25,4.81-16.25,11.31c0,7.34,5.9,11.91,16.01,11.91C245.06,102.66,252.16,98.09,255.53,89.78z
	 M320.63,104.95c-3.37,3.01-8.42,4.45-13.36,4.45c-11.91,0-18.53-6.74-18.53-18.41V52.72h-11.31V45.5h11.31V31.66h8.54V45.5h19.25
	v7.22h-19.25v37.79c0,7.46,3.85,11.55,10.95,11.55c3.49,0,6.98-1.08,9.39-3.25L320.63,104.95z M334.23,25.52
	c0-3.25,2.77-6.02,6.26-6.02c3.49,0,6.26,2.65,6.26,5.9c0,3.49-2.65,6.26-6.26,6.26C337,31.66,334.23,28.89,334.23,25.52z
	 M336.16,45.5h8.54v63.3h-8.54V45.5z M421.72,45.5l-28.16,63.3h-8.78l-28.04-63.3h8.91l23.71,53.91L413.3,45.5H421.72z M487.06,79.8
	h-52.95c0.96,13.24,11.07,22.02,24.91,22.02c7.7,0,14.56-2.77,19.37-8.3l4.81,5.54c-5.66,6.74-14.44,10.35-24.43,10.35
	c-19.74,0-33.21-13.48-33.21-32.25c0-18.77,13.12-32.13,30.93-32.13c17.81,0,30.69,13.12,30.69,32.13
	C487.18,77.87,487.06,78.83,487.06,79.8z M434.12,73.42H479c-1.08-12.39-10.11-21.06-22.5-21.06
	C444.22,52.36,435.2,61.02,434.12,73.42z M612.1,71.25v37.55h-27.2V75.94c0-8.18-3.01-11.31-7.34-11.31
	c-4.81,0-8.54,3.25-8.54,12.03v32.13h-27.2V75.94c0-8.18-2.77-11.31-7.34-11.31c-4.81,0-8.54,3.25-8.54,12.03v32.13h-27.2V42.97
	h25.87v6.14c4.93-4.93,11.43-7.34,18.65-7.34c8.54,0,16.01,3.13,20.58,9.99c5.3-6.38,13-9.99,22.02-9.99
	C600.78,41.77,612.1,50.55,612.1,71.25z M621.13,23.84c0-7.82,6.38-13.84,16.37-13.84c9.99,0,16.37,5.54,16.37,13.36
	c0,8.3-6.38,14.32-16.37,14.32C627.5,37.68,621.13,31.66,621.13,23.84z M623.89,42.97h27.2v65.82h-27.2V42.97z M735.81,71.25v37.55
	h-27.2V75.94c0-8.18-3.13-11.31-8.06-11.31c-5.54,0-10.23,3.49-10.23,13.24v30.93h-27.2V42.97H689v6.5
	c5.17-5.17,12.15-7.7,19.86-7.7C724.02,41.77,735.81,50.55,735.81,71.25z M821.61,19.51v89.29h-25.87v-5.41
	c-3.97,4.45-9.87,6.62-18.05,6.62c-17.21,0-31.77-13-31.77-34.18s14.56-34.05,31.77-34.05c7.22,0,12.76,1.8,16.73,5.66V19.51H821.61
	z M794.9,75.82c0-8.54-4.69-12.88-10.71-12.88c-6.02,0-10.71,4.33-10.71,12.88s4.69,13,10.71,13
	C790.2,88.82,794.9,84.37,794.9,75.82z M829.55,103.5l7.46-17.93c6.26,3.73,15.16,5.9,22.98,5.9c6.62,0,8.42-1.2,8.42-3.13
	c0-6.74-37.91,2.29-37.91-24.07c0-12.39,11.55-22.5,33.69-22.5c9.63,0,19.86,1.8,26.84,5.41l-7.46,17.93
	c-6.74-3.73-13.48-4.81-19.01-4.81c-6.98,0-8.91,1.56-8.91,3.13c0,6.86,37.79-2.05,37.79,24.31c0,11.91-11.19,22.26-34.06,22.26
	C848.09,110,836.29,107.35,829.55,103.5z"/>
</svg>
